# xmcd
#
# Track frame offsets: 
#        150
#        26966
#        53343
#        85029
#        120728
#        140830
#        176015
#        212874
#        234527
#        257812
#        284495
#        314415
#
# Disc length: 4489 seconds
#
# Revision: 1
# Processed by: cddbd v1.5.2PL0 Copyright (c) Steve Scherf et al.
# Submitted via: ExactAudioCopy v1.0b3
#
DISCID=b311870c
DTITLE=Miles Davis - Miles Away
DYEAR=2008
DGENRE=Jazz
TTITLE0='Round Midnight
TTITLE1=Ah-Leu-Cha
TTITLE2=All Of You
TTITLE3=Bye Bye Blackbird
TTITLE4=Tadd's Delight
TTITLE5=Dear Old Stockholm
TTITLE6=If I Were A Bell
TTITLE7=You're My Everything
TTITLE8=I Could Write A Book
TTITLE9=Oleo
TTITLE10=It Could Happen To You
TTITLE11=Woody 'N' You
EXTD=YEAR: 2008
EXTT0=
EXTT1=
EXTT2=
EXTT3=
EXTT4=
EXTT5=
EXTT6=
EXTT7=
EXTT8=
EXTT9=
EXTT10=
EXTT11=
PLAYORDER=
